<?xml version="1.0" encoding="UTF-8" standalone="no"?><!DOCTYPE svg PUBLIC "-//W3C//DTD SVG 1.1//EN" "http://www.w3.org/Graphics/SVG/1.1/DTD/svg11.dtd"><svg width="235px" height="123px" version="1.1" xmlns="http://www.w3.org/2000/svg" xmlns:xlink="http://www.w3.org/1999/xlink" xml:space="preserve" xmlns:serif="http://www.serif.com/" style="fill-rule:evenodd;clip-rule:evenodd;stroke-linejoin:round;stroke-miterlimit:2;"><g id="Laag-1" serif:id="Laag 1"><g transform="matrix(1,0,0,1,117.352,122.819)"><path d="M0,-122.819C-35.288,-122.819 -70.89,-118.799 -104.977,-110.872C-112.224,-109.186 -117.353,-102.727 -117.353,-95.288L-117.353,-43.464C-117.353,-36.932 -113.383,-31.057 -107.323,-28.62L-38.955,-1.155C-37.045,-0.387 -35.018,0 -32.984,0C-31.619,0 -30.25,-0.174 -28.914,-0.526L105.424,-36.837C112.453,-38.686 117.353,-45.042 117.353,-52.311L117.353,-95.288C117.353,-102.727 112.224,-109.186 104.978,-110.872C70.892,-118.799 35.29,-122.819 0,-122.819" style="fill-rule:nonzero;"/></g><g transform="matrix(1,0,0,1,73.9502,8.3848)"><path d="M0,103.777C-1.197,103.777 -2.4,103.55 -3.544,103.09L-61.495,79.784C-65.093,78.337 -67.45,74.847 -67.45,70.97L-67.45,19.146C-67.45,14.729 -64.405,10.894 -60.103,9.894C-40.886,5.424 -20.97,2.182 -0.906,0.256C1.745,0 4.407,0.881 6.39,2.681C8.371,4.482 9.501,7.036 9.501,9.713L9.501,94.277C9.501,97.432 7.935,100.382 5.319,102.149C3.726,103.225 1.87,103.777 0,103.777" style="fill:#ffbf00;fill-rule:nonzero;"/></g><g><g transform="matrix(1,0,0,1,108.694,79.8823)"><path d="M0,-61.741C4.276,-61.596 7.667,-57.99 7.667,-53.701C7.667,-51.444 9.448,-49.618 11.606,-49.633C13.736,-49.645 15.444,-51.444 15.444,-53.64C15.444,-62.212 8.716,-69.602 0,-70.143C-9.252,-70.716 -17.211,-63.437 -17.211,-53.887L-17.211,-6.796C-17.211,2.756 -9.252,8.975 0,7.172C8.716,5.474 15.444,-2.811 15.444,-11.384C15.444,-13.578 13.736,-15.15 11.606,-14.881C9.448,-14.608 7.667,-12.546 7.667,-10.29C7.667,-6 4.276,-1.942 0,-1.229C-4.402,-0.493 -8.084,-3.557 -8.084,-8.078L-8.084,-53.82C-8.084,-58.339 -4.402,-61.891 0,-61.741" style="fill:#ffbf00;fill-rule:nonzero;"/></g><g transform="matrix(1,0,0,1,141.677,81.6044)"><path d="M0,-48.927C-6.788,-48.817 -12.575,-42.354 -12.575,-34.519L-12.575,-12.983C-12.575,-5.148 -6.788,0.103 0,-1.214C6.462,-2.469 11.495,-9.272 11.495,-16.433C11.495,-18.284 10.204,-19.62 8.598,-19.411C6.975,-19.199 5.639,-17.487 5.639,-15.592C5.639,-12.049 3.139,-8.747 0,-8.221C-3.216,-7.68 -5.893,-10.24 -5.893,-13.941L-5.893,-34.965C-5.893,-38.663 -3.216,-41.785 0,-41.92C3.139,-42.053 5.639,-39.276 5.639,-35.732L5.639,-31.043L1.232,-30.67C-0.485,-30.526 -1.902,-28.823 -1.902,-26.877C-1.902,-24.93 -0.485,-23.503 1.232,-23.695L8.598,-24.509C10.204,-24.687 11.495,-26.334 11.495,-28.183L11.495,-36.121C11.495,-43.284 6.462,-49.03 0,-48.927" style="fill:#ffbf00;fill-rule:nonzero;"/></g><g transform="matrix(1,0,0,1,167.923,20.4662)"><path d="M0,48.511C-2.615,48.951 -4.782,46.607 -4.782,43.277L-4.782,-3.915C-4.782,-5.692 -5.973,-7.21 -7.453,-7.301C-8.952,-7.392 -10.186,-5.989 -10.186,-4.173L-10.186,44.051C-10.186,51.085 -5.512,55.903 0,54.833C1.394,54.564 2.518,52.942 2.518,51.217C2.518,49.492 1.394,48.279 0,48.511" style="fill:#ffbf00;fill-rule:nonzero;"/></g><g transform="matrix(1,0,0,1,193.46,70.5452)"><path d="M0,-38.695C-1.125,-38.677 -2.053,-37.383 -2.053,-35.81L-2.053,-2.656C-2.053,-1.082 -1.125,0.019 0,-0.199C1.119,-0.417 2.018,-1.846 2.018,-3.392L2.018,-35.928C2.018,-37.473 1.119,-38.714 0,-38.695" style="fill:#ffbf00;fill-rule:nonzero;"/></g><g transform="matrix(1,0,0,1,193.46,22.0944)"><path d="M0,-6.915C-1.125,-6.982 -2.053,-5.76 -2.053,-4.186L-2.053,-2.879C-2.053,-1.306 -1.125,0.002 0,0.035C1.119,0.067 2.018,-1.163 2.018,-2.708L2.018,-3.991C2.018,-5.534 1.119,-6.846 0,-6.915" style="fill:#ffbf00;fill-rule:nonzero;"/></g><g transform="matrix(1,0,0,1,222.004,52.1758)"><path d="M0,-7.515C-1.021,-7.864 -2.762,-8.985 -2.762,-12.52C-2.762,-13.824 -2.081,-15.789 -0.232,-15.868C1.583,-15.943 2.232,-14.084 2.232,-12.817C2.232,-11.48 2.901,-10.44 3.719,-10.499C4.525,-10.557 5.179,-11.674 5.179,-12.991C5.179,-16.808 3.319,-20.836 -0.232,-20.78C-3.92,-20.719 -5.973,-16.381 -5.973,-12.33C-5.973,-7.31 -4.004,-3.693 -0.797,-2.684C2.216,-1.736 2.558,0.878 2.558,2.761C2.558,5.262 1.316,7.505 -0.232,7.764C-1.808,8.029 -3.107,6.152 -3.107,3.575C-3.107,2.198 -3.821,1.171 -4.706,1.287C-5.598,1.402 -6.33,2.636 -6.33,4.036C-6.33,9.454 -3.547,13.321 -0.232,12.678C2.97,12.058 5.495,7.428 5.495,2.341C5.495,-2.804 3.58,-6.291 0,-7.515" style="fill:#ffbf00;fill-rule:nonzero;"/></g><g transform="matrix(1,0,0,1,180.249,57.6439)"><path d="M0,-9.364C-1.528,-9.767 -4.141,-11.102 -4.141,-15.437C-4.141,-17.035 -3.118,-19.454 -0.344,-19.571C2.363,-19.685 3.33,-17.427 3.33,-15.88C3.33,-14.25 4.324,-12.995 5.529,-13.084C6.729,-13.17 7.692,-14.539 7.692,-16.137C7.692,-20.776 4.94,-25.661 -0.344,-25.578C-5.884,-25.488 -8.988,-20.139 -8.988,-15.151C-8.988,-8.97 -6.011,-4.575 -1.191,-3.435C3.305,-2.37 3.814,0.803 3.814,3.1C3.814,6.147 1.967,8.935 -0.346,9.323C-2.705,9.72 -4.661,7.476 -4.661,4.313C-4.661,2.624 -5.734,1.39 -7.068,1.566C-8.418,1.741 -9.529,3.288 -9.529,5.013C-9.529,11.685 -5.321,16.297 -0.346,15.332C4.424,14.407 8.159,8.656 8.159,2.477C8.159,-3.772 5.329,-7.96 0,-9.364" style="fill:#ffbf00;fill-rule:nonzero;"/></g><g transform="matrix(1,0,0,1,213.179,40.1637)"><path d="M0,19.96L0,-6.06C0,-7.478 -0.758,-8.618 -1.695,-8.602C-2.643,-8.588 -3.42,-7.402 -3.42,-5.962L-3.42,17.061C-3.42,19.762 -4.868,22.204 -6.68,22.508C-8.523,22.819 -10.047,20.806 -10.047,18.017L-10.047,-5.769C-10.047,-7.258 -10.884,-8.456 -11.92,-8.438C-12.966,-8.423 -13.824,-7.175 -13.824,-5.659L-13.824,18.562C-13.824,24.437 -10.559,28.578 -6.68,27.822C-4.983,27.49 -3.395,26.259 -2.168,24.353L-1.12,25.796C-0.485,26.658 0.619,26.465 1.255,25.393C1.91,24.289 1.921,22.67 1.285,21.774L0,19.96Z" style="fill:#ffbf00;fill-rule:nonzero;"/></g></g><g id="brand-consultancy-" serif:id="brand consultancy "><g transform="matrix(1,0,0,1,98.999,103.462)"><path d="M0,1.398L-3.227,2.192L-3.227,5.959L0,5.126C1.383,4.77 2.035,3.754 2.035,2.739C2.035,1.722 1.383,1.059 0,1.398M-0.198,-4.713L-3.227,-4.029L-3.227,-0.498L-0.198,-1.217C1.099,-1.526 1.817,-2.394 1.817,-3.432C1.817,-4.471 1.099,-5.006 -0.198,-4.713M0.309,7.684L-6.38,9.467L-6.38,-6.009L0.044,-7.41C3.075,-8.069 4.812,-6.813 4.812,-4.254C4.812,-2.596 3.699,-1.26 2.922,-0.715C3.851,-0.517 5.025,0.14 5.025,2.131C5.025,4.919 3.075,6.948 0.309,7.684" style="fill:#fff;fill-rule:nonzero;"/></g><g transform="matrix(1,0,0,1,112.557,105.899)"><path d="M0,-10.263L-2.663,-9.66L-2.663,-5.795L0,-6.432C1.222,-6.726 2.02,-7.704 2.02,-8.818C2.02,-9.932 1.222,-10.538 0,-10.263M2.158,1.141L-0.628,-3.916L-2.663,-3.412L-2.663,2.425L-5.539,3.192L-5.539,-11.582L0.182,-12.827C3.07,-13.455 4.753,-11.839 4.753,-9.453C4.753,-7.448 3.56,-5.916 2.198,-5.078L5.319,0.298L2.158,1.141Z" style="fill:#fff;fill-rule:nonzero;"/></g><g transform="matrix(1,0,0,1,124.591,101.697)"><path d="M0,-7.102L-1.68,-1.622L1.604,-2.442L0,-7.102ZM3.044,1.899L2.28,-0.34L-2.411,0.868L-3.224,3.569L-6.001,4.31L-1.081,-10.973L0.941,-11.412L5.651,1.204L3.044,1.899Z" style="fill:#fff;fill-rule:nonzero;"/></g><g transform="matrix(1,0,0,1,139.019,88.8252)"><path d="M0,11.737L-4.793,4.76L-4.793,13.012L-7.221,13.661L-7.221,0.095L-5.054,-0.375L-0.249,6.675L-0.249,-1.423L2.058,-1.924L2.058,11.188L0,11.737Z" style="fill:#fff;fill-rule:nonzero;"/></g><g transform="matrix(1,0,0,1,149.273,96.3529)"><path d="M0,-8.239C-0.372,-8.672 -0.867,-8.829 -1.616,-8.659L-3.272,-8.284L-3.272,0.105L-1.616,-0.322C-0.867,-0.515 -0.372,-0.911 0,-1.526C0.402,-2.199 0.466,-3.123 0.466,-5.046C0.466,-6.972 0.402,-7.76 0,-8.239M1.495,-0.131C0.773,0.896 -0.262,1.545 -1.415,1.853L-5.496,2.941L-5.496,-10.041L-1.415,-10.929C-0.262,-11.18 0.773,-11.033 1.495,-10.357C2.714,-9.214 2.591,-7.453 2.591,-5.56C2.591,-3.671 2.714,-1.863 1.495,-0.131" style="fill:#fff;fill-rule:nonzero;"/></g><g transform="matrix(1,0,0,1,160.817,82.3892)"><path d="M0,12.463C-1.105,12.759 -2.022,12.522 -2.743,11.851C-3.789,10.876 -3.759,9.326 -3.759,7.196C-3.759,5.066 -3.789,3.531 -2.743,2.051C-2.022,1.03 -1.105,0.351 0,0.109C1.865,-0.296 3.304,0.672 3.647,3.1L1.698,3.554C1.502,2.632 0.999,2 0.014,2.222C-0.524,2.344 -0.964,2.682 -1.25,3.142C-1.636,3.746 -1.75,4.356 -1.75,6.712C-1.75,9.066 -1.636,9.62 -1.25,10.036C-0.964,10.359 -0.524,10.483 0.014,10.345C0.999,10.088 1.502,9.212 1.698,8.197L3.647,7.706C3.304,10.303 1.852,11.969 0,12.463" style="fill:#fff;fill-rule:nonzero;"/></g><g transform="matrix(1,0,0,1,170.036,90.3529)"><path d="M0,-7.196C-0.263,-7.514 -0.671,-7.669 -1.172,-7.556C-1.676,-7.443 -2.101,-7.098 -2.369,-6.655C-2.729,-6.074 -2.822,-5.505 -2.822,-3.227C-2.822,-0.949 -2.729,-0.425 -2.369,-0.017C-2.101,0.295 -1.676,0.433 -1.172,0.305C-0.671,0.173 -0.263,-0.176 0,-0.624C0.354,-1.207 0.458,-1.775 0.458,-4.02C0.458,-6.268 0.354,-6.785 0,-7.196M1.34,0.406C0.691,1.396 -0.104,2.067 -1.172,2.35C-2.248,2.639 -3.077,2.395 -3.752,1.739C-4.729,0.787 -4.702,-0.71 -4.702,-2.77C-4.702,-4.831 -4.729,-6.317 -3.752,-7.742C-3.077,-8.724 -2.248,-9.369 -1.172,-9.603C-0.104,-9.835 0.691,-9.55 1.34,-8.875C2.271,-7.911 2.258,-6.458 2.258,-4.457C2.258,-2.457 2.271,-1.01 1.34,0.406" style="fill:#fff;fill-rule:nonzero;"/></g><g transform="matrix(1,0,0,1,179.317,79.638)"><path d="M0,10.181L-3.466,4.099L-3.466,11.105L-5.215,11.571L-5.215,0.069L-3.652,-0.27L-0.182,5.867L-0.182,-1.025L1.49,-1.39L1.49,9.785L0,10.181Z" style="fill:#fff;fill-rule:nonzero;"/></g><g transform="matrix(1,0,0,1,185.051,77.2815)"><path d="M0,11.1C-1.249,11.435 -2.208,11.333 -3.033,10.444L-1.972,8.77C-1.447,9.332 -0.738,9.381 0.024,9.185C0.963,8.943 1.465,8.34 1.465,7.467C1.465,7.084 1.386,6.782 1.213,6.611C1.057,6.451 0.873,6.388 0.495,6.405L-0.494,6.464C-1.203,6.498 -1.727,6.331 -2.102,5.941C-2.501,5.508 -2.7,4.838 -2.7,3.904C-2.7,1.926 -1.598,0.296 0.186,-0.091C1.306,-0.335 2.111,-0.143 2.798,0.605L1.805,2.155C1.294,1.613 0.677,1.66 0.14,1.782C-0.716,1.975 -1.132,2.704 -1.132,3.463C-1.132,3.742 -1.063,4.02 -0.888,4.195C-0.726,4.358 -0.459,4.464 -0.125,4.447L0.839,4.401C1.578,4.364 2.042,4.529 2.381,4.871C2.81,5.316 2.999,6.06 2.999,7.018C2.999,9.115 1.704,10.647 0,11.1" style="fill:#fff;fill-rule:nonzero;"/></g><g transform="matrix(1,0,0,1,192.25,75.5716)"><path d="M0,10.89C-1.588,11.313 -2.864,10.158 -2.864,7.878L-2.864,0.808L-1.338,0.475L-1.338,7.42C-1.338,8.652 -0.813,9.249 0,9.039C0.804,8.831 1.327,7.972 1.327,6.757L1.327,-0.103L2.789,-0.423L2.789,6.466C2.789,8.687 1.562,10.473 0,10.89" style="fill:#fff;fill-rule:nonzero;"/></g><g transform="matrix(1,0,0,1,196.653,74.4859)"><path d="M0,10.712L0,0.312L1.43,0L1.43,8.532L4.68,7.693L4.68,9.465L0,10.712Z" style="fill:#fff;fill-rule:nonzero;"/></g><g transform="matrix(1,0,0,1,204.307,81.3846)"><path d="M0,-6.508L0,1.772L-1.345,2.133L-1.345,-6.203L-3.176,-5.789L-3.176,-7.562L1.775,-8.641L1.775,-6.909L0,-6.508Z" style="fill:#fff;fill-rule:nonzero;"/></g><g transform="matrix(1,0,0,1,208.805,79.7536)"><path d="M0,-4.71L-0.832,-0.935L0.799,-1.343L0,-4.71ZM1.517,1.8L1.136,0.177L-1.195,0.777L-1.596,2.63L-2.962,2.994L-0.535,-7.486L0.469,-7.704L2.822,1.453L1.517,1.8Z" style="fill:#fff;fill-rule:nonzero;"/></g><g transform="matrix(1,0,0,1,216.08,71.3162)"><path d="M0,8.703L-2.443,3.479L-2.443,9.354L-3.671,9.682L-3.671,0.05L-2.573,-0.19L-0.129,5.071L-0.129,-0.722L1.055,-0.979L1.055,8.422L0,8.703Z" style="fill:#fff;fill-rule:nonzero;"/></g><g transform="matrix(1,0,0,1,220.491,69.4635)"><path d="M0,9.458C-0.64,9.628 -1.168,9.402 -1.581,8.859C-2.182,8.07 -2.164,6.898 -2.164,5.286C-2.164,3.672 -2.182,2.507 -1.581,1.43C-1.168,0.684 -0.64,0.203 0,0.065C1.08,-0.17 1.914,0.624 2.115,2.49L0.983,2.754C0.869,2.046 0.578,1.543 0.008,1.672C-0.304,1.743 -0.559,1.982 -0.722,2.318C-0.944,2.762 -1.011,3.218 -1.011,5.005C-1.011,6.793 -0.944,7.221 -0.722,7.554C-0.559,7.811 -0.304,7.927 0.008,7.847C0.578,7.698 0.869,7.056 0.983,6.291L2.115,6.007C1.914,7.97 1.071,9.171 0,9.458" style="fill:#fff;fill-rule:nonzero;"/></g><g transform="matrix(1,0,0,1,225.598,72.1096)"><path d="M0,1.686L0,5.373L-1.074,5.659L-1.074,1.952L-2.762,-3.014L-1.567,-3.275L-0.528,0.133L0.484,-3.72L1.639,-3.973L0,1.686Z" style="fill:#fff;fill-rule:nonzero;"/></g></g><g id="_37-" serif:id="37°"><g transform="matrix(1,0,0,1,20.3525,22.3539)"><path d="M0,64.301L-0.001,64.301C-0.632,64.301 -1.277,64.171 -1.919,63.915C-6.039,62.267 -9.267,55.566 -9.267,48.659C-9.267,46.946 -8.523,45.702 -7.5,45.702C-7.395,45.702 -7.286,45.716 -7.18,45.743C-6.046,46.032 -5.158,47.765 -5.158,49.688C-5.158,52.949 -3.627,56.125 -1.745,56.768C-1.524,56.843 -1.303,56.881 -1.088,56.881C0.53,56.881 1.751,54.697 1.751,51.799L1.751,41.62C1.751,38.208 0.097,35.093 -1.861,34.818C-3.079,34.644 -4.033,32.972 -4.033,31.01C-4.033,29.056 -3.058,27.542 -1.805,27.644C-1.753,27.648 -1.7,27.65 -1.647,27.65C0.227,27.65 1.751,24.98 1.751,21.697L1.751,13.109C1.751,9.749 0.145,7.038 -1.801,7.238C-3.652,7.429 -5.158,10.218 -5.158,13.455C-5.158,15.405 -6.071,16.949 -7.237,16.97C-8.386,16.97 -9.267,15.5 -9.267,13.624C-9.267,6.693 -6.016,0.737 -1.866,0.064C-1.604,0.022 -1.337,0 -1.075,0C3.268,0 6.67,5.666 6.67,12.901L6.67,21.816C6.67,25.726 5.648,29.367 3.863,31.844C5.648,34.711 6.67,38.581 6.67,42.495L6.67,53.055C6.67,56.238 5.995,59.114 4.77,61.155C3.551,63.184 1.856,64.301 0,64.301" style="fill-rule:nonzero;"/></g><g transform="matrix(1,0,0,1,36.79,17.1389)"><path d="M0,76.311C-0.264,76.311 -0.532,76.257 -0.8,76.15C-1.067,76.044 -1.337,75.882 -1.601,75.666C-2.308,75.085 -2.888,74.181 -3.235,73.12C-3.579,72.066 -3.658,70.967 -3.458,70.027L8.979,10.981L8.974,9.66L-1.053,10.688L-1.053,15.915C-1.053,18.166 -2.32,20.038 -3.878,20.086L-3.879,20.086C-5.442,20.086 -6.618,18.389 -6.618,16.223L-6.618,7.292C-6.618,5.101 -5.436,3.194 -3.926,2.952L12.339,0.318C14.329,0 15.92,1.856 15.92,4.376L15.92,11.06C15.92,11.498 15.874,11.926 15.782,12.336L2.14,74.172C1.851,75.492 1.031,76.311 0,76.311" style="fill-rule:nonzero;"/></g><g transform="matrix(1,0,0,1,67.6729,30.936)"><path d="M0,-9.2C-0.133,-9.2 -0.268,-9.192 -0.403,-9.176C-2.523,-8.921 -4.248,-6.679 -4.248,-4.179C-4.248,-1.781 -2.666,0.099 -0.647,0.099C-0.582,0.099 -0.516,0.097 -0.448,0.092C1.783,-0.04 3.6,-2.292 3.6,-4.928C3.6,-7.323 2.019,-9.2 0,-9.2M-0.584,7.477C-5.943,7.477 -10.143,2.571 -10.143,-3.692C-10.143,-10.024 -5.896,-15.676 -0.474,-16.557C0.014,-16.637 0.507,-16.677 0.991,-16.677C6.433,-16.677 10.536,-11.875 10.536,-5.508C10.536,1.429 5.515,7.375 -0.43,7.476L-0.584,7.477Z" style="fill-rule:nonzero;"/></g></g></g></svg>